<?xml version="1.0" encoding="utf-8"?>
<!-- Generator: Adobe Illustrator 22.1.0, SVG Export Plug-In . SVG Version: 6.00 Build 0)  -->
<svg version="1.1" id="Layer_1" xmlns="http://www.w3.org/2000/svg" xmlns:xlink="http://www.w3.org/1999/xlink" x="0px" y="0px"
	 viewBox="0 0 400 400" style="enable-background:new 0 0 400 400;" xml:space="preserve">
<style type="text/css">
	.st0{fill:#FFFFFF;}
</style>
<title>flogo-RGB-HEX-Blk-1024</title>
<path d="M377.9,0H22.1C9.9,0,0,9.9,0,22.1v355.9C0,390.1,9.9,400,22.1,400h191.6V245.3h-52v-60.5h52v-44.6
	c0-51.7,31.6-79.8,77.6-79.8c22.1,0,41,1.6,46.6,2.4v54h-31.8c-25.1,0-29.9,11.9-29.9,29.4v38.6h60l-7.8,60.5h-52.1V400h101.8
	c12.2,0,22.1-9.9,22.1-22.1c0,0,0,0,0,0V22.1C400,9.9,390.1,0,377.9,0z"/>
<path id="f" class="st0" d="M276.2,400V245.3h52.1l7.8-60.5h-60v-38.6c0-17.5,4.9-29.4,29.9-29.4h31.8v-54
	c-5.5-0.7-24.5-2.4-46.6-2.4c-46.1,0-77.6,28.1-77.6,79.8v44.6h-52v60.5h52V400H276.2z"/>
</svg>
